# xmcd
#
# Track frame offsets: 
#        150
#        17245
#        33982
#        51364
#        72759
#        87493
#        102080
#        115046
#        133094
#        149393
#        166262
#
# Disc length: 2458 seconds
#
# Revision: 0
# Processed by: cddbd v1.5.2PL0 Copyright (c) Steve Scherf et al.
# Submitted via: ExactAudioCopy v1.0b1
#
DISCID=9409980b
DTITLE=Thomas Ring - Wrong Side Of The Daylight
DYEAR=2011
DGENRE=Singer/Songwriter
TTITLE0=Break The Silence
TTITLE1=Leave A Light On
TTITLE2=Taking The Easy Way Out
TTITLE3=Lost In Space
TTITLE4=What Stops Us Now?
TTITLE5=I'm Still Gonna Write You A Song
TTITLE6=Catching Shooting Stars
TTITLE7=The Sun, The Moon And The Weather Balloon
TTITLE8=Wasted On A Saturday
TTITLE9=Song Without A Sound
TTITLE10=Valentine
EXTD=
EXTT0=
EXTT1=
EXTT2=
EXTT3=
EXTT4=
EXTT5=
EXTT6=
EXTT7=
EXTT8=
EXTT9=
EXTT10=
PLAYORDER=
